<?xml version="1.0" encoding="UTF-8" standalone="no"?>
<!DOCTYPE svg PUBLIC "-//W3C//DTD SVG 1.1//EN"
 "http://www.w3.org/Graphics/SVG/1.1/DTD/svg11.dtd">
<!-- Generated by graphviz version 2.43.0 (0)
 -->
<!-- Title: %3 Pages: 1 -->
<svg width="2130pt" height="548pt"
 viewBox="0.00 0.00 2130.06 548.00" xmlns="http://www.w3.org/2000/svg" xmlns:xlink="http://www.w3.org/1999/xlink">
<g id="graph0" class="graph" transform="scale(1 1) rotate(0) translate(4 544)">
<title>%3</title>
<polygon fill="white" stroke="transparent" points="-4,4 -4,-544 2126.06,-544 2126.06,4 -4,4"/>
<!-- [root] aws_eip.ip (expand) -->
<g id="node1" class="node">
<title>[root] aws_eip.ip (expand)</title>
<polygon fill="none" stroke="black" points="370.88,-108 279.88,-108 279.88,-72 370.88,-72 370.88,-108"/>
<text text-anchor="middle" x="325.38" y="-86.3" font-family="Times,serif" font-size="14.00">aws_eip.ip</text>
</g>
<!-- [root] provider[&quot;registry.terraform.io/hashicorp/aws&quot;] -->
<g id="node15" class="node">
<title>[root] provider[&quot;registry.terraform.io/hashicorp/aws&quot;]</title>
<polygon fill="none" stroke="black" points="325.38,-36 0.12,-18 325.38,0 650.65,-18 325.38,-36"/>
<text text-anchor="middle" x="325.38" y="-14.3" font-family="Times,serif" font-size="14.00">provider[&quot;registry.terraform.io/hashicorp/aws&quot;]</text>
</g>
<!-- [root] aws_eip.ip (expand)&#45;&gt;[root] provider[&quot;registry.terraform.io/hashicorp/aws&quot;] -->
<g id="edge1" class="edge">
<title>[root] aws_eip.ip (expand)&#45;&gt;[root] provider[&quot;registry.terraform.io/hashicorp/aws&quot;]</title>
<path fill="none" stroke="black" d="M325.38,-71.7C325.38,-63.98 325.38,-54.71 325.38,-46.11"/>
<polygon fill="black" stroke="black" points="328.88,-46.1 325.38,-36.1 321.88,-46.1 328.88,-46.1"/>
</g>
<!-- [root] aws_instance.private_ec2 (expand) -->
<g id="node2" class="node">
<title>[root] aws_instance.private_ec2 (expand)</title>
<polygon fill="none" stroke="black" points="1886.38,-324 1688.38,-324 1688.38,-288 1886.38,-288 1886.38,-324"/>
<text text-anchor="middle" x="1787.38" y="-302.3" font-family="Times,serif" font-size="14.00">aws_instance.private_ec2</text>
</g>
<!-- [root] aws_security_group.sg&#45;01 (expand) -->
<g id="node10" class="node">
<title>[root] aws_security_group.sg&#45;01 (expand)</title>
<polygon fill="none" stroke="black" points="1281.88,-252 1080.88,-252 1080.88,-216 1281.88,-216 1281.88,-252"/>
<text text-anchor="middle" x="1181.38" y="-230.3" font-family="Times,serif" font-size="14.00">aws_security_group.sg&#45;01</text>
</g>
<!-- [root] aws_instance.private_ec2 (expand)&#45;&gt;[root] aws_security_group.sg&#45;01 (expand) -->
<g id="edge2" class="edge">
<title>[root] aws_instance.private_ec2 (expand)&#45;&gt;[root] aws_security_group.sg&#45;01 (expand)</title>
<path fill="none" stroke="black" d="M1688.24,-289.2C1685.26,-288.78 1682.3,-288.38 1679.38,-288 1546.66,-270.5 1393.46,-254.88 1292.41,-245.21"/>
<polygon fill="black" stroke="black" points="1292.47,-241.7 1282.19,-244.23 1291.81,-248.67 1292.47,-241.7"/>
</g>
<!-- [root] aws_subnet.private&#45;subnet (expand) -->
<g id="node11" class="node">
<title>[root] aws_subnet.private&#45;subnet (expand)</title>
<polygon fill="none" stroke="black" points="1059.88,-180 850.88,-180 850.88,-144 1059.88,-144 1059.88,-180"/>
<text text-anchor="middle" x="955.38" y="-158.3" font-family="Times,serif" font-size="14.00">aws_subnet.private&#45;subnet</text>
</g>
<!-- [root] aws_instance.private_ec2 (expand)&#45;&gt;[root] aws_subnet.private&#45;subnet (expand) -->
<g id="edge3" class="edge">
<title>[root] aws_instance.private_ec2 (expand)&#45;&gt;[root] aws_subnet.private&#45;subnet (expand)</title>
<path fill="none" stroke="black" d="M1688.27,-289.02C1685.27,-288.66 1682.31,-288.32 1679.38,-288 1545.04,-273.48 1196.72,-304.91 1072.38,-252 1050.68,-242.76 1051.85,-230.67 1033.38,-216 1020.13,-205.48 1004.86,-194.81 991.37,-185.83"/>
<polygon fill="black" stroke="black" points="993.08,-182.77 982.8,-180.2 989.23,-188.62 993.08,-182.77"/>
</g>
<!-- [root] var.ami -->
<g id="node17" class="node">
<title>[root] var.ami</title>
<polygon fill="none" stroke="black" points="925.88,-252 862.88,-252 862.88,-216 931.88,-216 931.88,-246 925.88,-252"/>
<polyline fill="none" stroke="black" points="925.88,-252 925.88,-246 "/>
<polyline fill="none" stroke="black" points="931.88,-246 925.88,-246 "/>
<text text-anchor="middle" x="897.38" y="-230.3" font-family="Times,serif" font-size="14.00">var.ami</text>
</g>
<!-- [root] aws_instance.private_ec2 (expand)&#45;&gt;[root] var.ami -->
<g id="edge4" class="edge">
<title>[root] aws_instance.private_ec2 (expand)&#45;&gt;[root] var.ami</title>
<path fill="none" stroke="black" d="M1688.27,-288.98C1685.28,-288.63 1682.31,-288.3 1679.38,-288 1356.06,-254.76 1264.52,-318.71 942.23,-251.71"/>
<polygon fill="black" stroke="black" points="942.64,-248.22 932.14,-249.58 941.2,-255.07 942.64,-248.22"/>
</g>
<!-- [root] var.type -->
<g id="node20" class="node">
<title>[root] var.type</title>
<polygon fill="none" stroke="black" points="1018.38,-252 950.38,-252 950.38,-216 1024.38,-216 1024.38,-246 1018.38,-252"/>
<polyline fill="none" stroke="black" points="1018.38,-252 1018.38,-246 "/>
<polyline fill="none" stroke="black" points="1024.38,-246 1018.38,-246 "/>
<text text-anchor="middle" x="987.38" y="-230.3" font-family="Times,serif" font-size="14.00">var.type</text>
</g>
<!-- [root] aws_instance.private_ec2 (expand)&#45;&gt;[root] var.type -->
<g id="edge5" class="edge">
<title>[root] aws_instance.private_ec2 (expand)&#45;&gt;[root] var.type</title>
<path fill="none" stroke="black" d="M1688.27,-289C1685.27,-288.65 1682.31,-288.31 1679.38,-288 1395.65,-257.78 1318.64,-305.59 1038.38,-252 1037.09,-251.75 1035.79,-251.48 1034.48,-251.19"/>
<polygon fill="black" stroke="black" points="1034.96,-247.7 1024.4,-248.61 1033.22,-254.48 1034.96,-247.7"/>
</g>
<!-- [root] aws_instance.public_ec2 (expand) -->
<g id="node3" class="node">
<title>[root] aws_instance.public_ec2 (expand)</title>
<polygon fill="none" stroke="black" points="992.88,-324 801.88,-324 801.88,-288 992.88,-288 992.88,-324"/>
<text text-anchor="middle" x="897.38" y="-302.3" font-family="Times,serif" font-size="14.00">aws_instance.public_ec2</text>
</g>
<!-- [root] aws_instance.public_ec2 (expand)&#45;&gt;[root] aws_security_group.sg&#45;01 (expand) -->
<g id="edge6" class="edge">
<title>[root] aws_instance.public_ec2 (expand)&#45;&gt;[root] aws_security_group.sg&#45;01 (expand)</title>
<path fill="none" stroke="black" d="M966.49,-287.97C1007.47,-277.87 1059.55,-265.03 1102.18,-254.52"/>
<polygon fill="black" stroke="black" points="1103.09,-257.9 1111.96,-252.11 1101.41,-251.11 1103.09,-257.9"/>
</g>
<!-- [root] aws_subnet.public&#45;subnet (expand) -->
<g id="node12" class="node">
<title>[root] aws_subnet.public&#45;subnet (expand)</title>
<polygon fill="none" stroke="black" points="553.88,-180 352.88,-180 352.88,-144 553.88,-144 553.88,-180"/>
<text text-anchor="middle" x="453.38" y="-158.3" font-family="Times,serif" font-size="14.00">aws_subnet.public&#45;subnet</text>
</g>
<!-- [root] aws_instance.public_ec2 (expand)&#45;&gt;[root] aws_subnet.public&#45;subnet (expand) -->
<g id="edge7" class="edge">
<title>[root] aws_instance.public_ec2 (expand)&#45;&gt;[root] aws_subnet.public&#45;subnet (expand)</title>
<path fill="none" stroke="black" d="M801.71,-292.89C689.11,-278.5 516.52,-255.93 510.38,-252 498.29,-244.27 479.69,-212.75 467.05,-189.4"/>
<polygon fill="black" stroke="black" points="469.99,-187.48 462.2,-180.3 463.81,-190.77 469.99,-187.48"/>
</g>
<!-- [root] aws_instance.public_ec2 (expand)&#45;&gt;[root] var.ami -->
<g id="edge8" class="edge">
<title>[root] aws_instance.public_ec2 (expand)&#45;&gt;[root] var.ami</title>
<path fill="none" stroke="black" d="M897.38,-287.7C897.38,-279.98 897.38,-270.71 897.38,-262.11"/>
<polygon fill="black" stroke="black" points="900.88,-262.1 897.38,-252.1 893.88,-262.1 900.88,-262.1"/>
</g>
<!-- [root] aws_instance.public_ec2 (expand)&#45;&gt;[root] var.type -->
<g id="edge9" class="edge">
<title>[root] aws_instance.public_ec2 (expand)&#45;&gt;[root] var.type</title>
<path fill="none" stroke="black" d="M919.63,-287.7C930.96,-278.88 944.91,-268.03 957.2,-258.47"/>
<polygon fill="black" stroke="black" points="959.65,-261.01 965.39,-252.1 955.35,-255.48 959.65,-261.01"/>
</g>
<!-- [root] aws_internet_gateway.internet&#45;gw (expand) -->
<g id="node4" class="node">
<title>[root] aws_internet_gateway.internet&#45;gw (expand)</title>
<polygon fill="none" stroke="black" points="832.88,-180 571.88,-180 571.88,-144 832.88,-144 832.88,-180"/>
<text text-anchor="middle" x="702.38" y="-158.3" font-family="Times,serif" font-size="14.00">aws_internet_gateway.internet&#45;gw</text>
</g>
<!-- [root] aws_vpc.vpc&#45;1 (expand) -->
<g id="node13" class="node">
<title>[root] aws_vpc.vpc&#45;1 (expand)</title>
<polygon fill="none" stroke="black" points="761.88,-108 642.88,-108 642.88,-72 761.88,-72 761.88,-108"/>
<text text-anchor="middle" x="702.38" y="-86.3" font-family="Times,serif" font-size="14.00">aws_vpc.vpc&#45;1</text>
</g>
<!-- [root] aws_internet_gateway.internet&#45;gw (expand)&#45;&gt;[root] aws_vpc.vpc&#45;1 (expand) -->
<g id="edge10" class="edge">
<title>[root] aws_internet_gateway.internet&#45;gw (expand)&#45;&gt;[root] aws_vpc.vpc&#45;1 (expand)</title>
<path fill="none" stroke="black" d="M702.38,-143.7C702.38,-135.98 702.38,-126.71 702.38,-118.11"/>
<polygon fill="black" stroke="black" points="705.88,-118.1 702.38,-108.1 698.88,-118.1 705.88,-118.1"/>
</g>
<!-- [root] aws_nat_gateway.nat&#45;01 (expand) -->
<g id="node5" class="node">
<title>[root] aws_nat_gateway.nat&#45;01 (expand)</title>
<polygon fill="none" stroke="black" points="418.88,-252 229.88,-252 229.88,-216 418.88,-216 418.88,-252"/>
<text text-anchor="middle" x="324.38" y="-230.3" font-family="Times,serif" font-size="14.00">aws_nat_gateway.nat&#45;01</text>
</g>
<!-- [root] aws_nat_gateway.nat&#45;01 (expand)&#45;&gt;[root] aws_eip.ip (expand) -->
<g id="edge11" class="edge">
<title>[root] aws_nat_gateway.nat&#45;01 (expand)&#45;&gt;[root] aws_eip.ip (expand)</title>
<path fill="none" stroke="black" d="M324.5,-215.87C324.67,-191.67 324.99,-147.21 325.19,-118.39"/>
<polygon fill="black" stroke="black" points="328.69,-118.21 325.26,-108.19 321.69,-118.16 328.69,-118.21"/>
</g>
<!-- [root] aws_nat_gateway.nat&#45;01 (expand)&#45;&gt;[root] aws_subnet.public&#45;subnet (expand) -->
<g id="edge12" class="edge">
<title>[root] aws_nat_gateway.nat&#45;01 (expand)&#45;&gt;[root] aws_subnet.public&#45;subnet (expand)</title>
<path fill="none" stroke="black" d="M355.94,-215.88C373.04,-206.6 394.36,-195.03 412.7,-185.08"/>
<polygon fill="black" stroke="black" points="414.58,-188.04 421.7,-180.19 411.24,-181.88 414.58,-188.04"/>
</g>
<!-- [root] aws_route_table.private_route (expand) -->
<g id="node6" class="node">
<title>[root] aws_route_table.private_route (expand)</title>
<polygon fill="none" stroke="black" points="373.88,-324 140.88,-324 140.88,-288 373.88,-288 373.88,-324"/>
<text text-anchor="middle" x="257.38" y="-302.3" font-family="Times,serif" font-size="14.00">aws_route_table.private_route</text>
</g>
<!-- [root] aws_route_table.private_route (expand)&#45;&gt;[root] aws_nat_gateway.nat&#45;01 (expand) -->
<g id="edge13" class="edge">
<title>[root] aws_route_table.private_route (expand)&#45;&gt;[root] aws_nat_gateway.nat&#45;01 (expand)</title>
<path fill="none" stroke="black" d="M273.94,-287.7C282.06,-279.22 291.97,-268.86 300.85,-259.58"/>
<polygon fill="black" stroke="black" points="303.62,-261.75 308.01,-252.1 298.57,-256.91 303.62,-261.75"/>
</g>
<!-- [root] aws_route_table.public_route (expand) -->
<g id="node7" class="node">
<title>[root] aws_route_table.public_route (expand)</title>
<polygon fill="none" stroke="black" points="744.88,-252 519.88,-252 519.88,-216 744.88,-216 744.88,-252"/>
<text text-anchor="middle" x="632.38" y="-230.3" font-family="Times,serif" font-size="14.00">aws_route_table.public_route</text>
</g>
<!-- [root] aws_route_table.public_route (expand)&#45;&gt;[root] aws_internet_gateway.internet&#45;gw (expand) -->
<g id="edge14" class="edge">
<title>[root] aws_route_table.public_route (expand)&#45;&gt;[root] aws_internet_gateway.internet&#45;gw (expand)</title>
<path fill="none" stroke="black" d="M649.69,-215.7C658.25,-207.14 668.73,-196.66 678.08,-187.3"/>
<polygon fill="black" stroke="black" points="680.68,-189.65 685.28,-180.1 675.73,-184.7 680.68,-189.65"/>
</g>
<!-- [root] aws_route_table_association.private_association (expand) -->
<g id="node8" class="node">
<title>[root] aws_route_table_association.private_association (expand)</title>
<polygon fill="none" stroke="black" points="789.38,-396 429.38,-396 429.38,-360 789.38,-360 789.38,-396"/>
<text text-anchor="middle" x="609.38" y="-374.3" font-family="Times,serif" font-size="14.00">aws_route_table_association.private_association</text>
</g>
<!-- [root] aws_route_table_association.private_association (expand)&#45;&gt;[root] aws_route_table.private_route (expand) -->
<g id="edge15" class="edge">
<title>[root] aws_route_table_association.private_association (expand)&#45;&gt;[root] aws_route_table.private_route (expand)</title>
<path fill="none" stroke="black" d="M523.72,-359.97C472.2,-349.72 406.5,-336.66 353.25,-326.07"/>
<polygon fill="black" stroke="black" points="353.61,-322.57 343.12,-324.05 352.24,-329.43 353.61,-322.57"/>
</g>
<!-- [root] aws_route_table_association.private_association (expand)&#45;&gt;[root] aws_subnet.private&#45;subnet (expand) -->
<g id="edge16" class="edge">
<title>[root] aws_route_table_association.private_association (expand)&#45;&gt;[root] aws_subnet.private&#45;subnet (expand)</title>
<path fill="none" stroke="black" d="M675.2,-359.99C700.89,-351.56 729.78,-339.74 753.38,-324 780.59,-305.85 827.37,-235.83 853.38,-216 869.18,-203.95 888.12,-193.26 905.36,-184.69"/>
<polygon fill="black" stroke="black" points="907.26,-187.66 914.74,-180.15 904.21,-181.36 907.26,-187.66"/>
</g>
<!-- [root] aws_route_table_association.public_association (expand) -->
<g id="node9" class="node">
<title>[root] aws_route_table_association.public_association (expand)</title>
<polygon fill="none" stroke="black" points="744.88,-324 391.88,-324 391.88,-288 744.88,-288 744.88,-324"/>
<text text-anchor="middle" x="568.38" y="-302.3" font-family="Times,serif" font-size="14.00">aws_route_table_association.public_association</text>
</g>
<!-- [root] aws_route_table_association.public_association (expand)&#45;&gt;[root] aws_route_table.public_route (expand) -->
<g id="edge17" class="edge">
<title>[root] aws_route_table_association.public_association (expand)&#45;&gt;[root] aws_route_table.public_route (expand)</title>
<path fill="none" stroke="black" d="M584.2,-287.7C591.95,-279.22 601.42,-268.86 609.91,-259.58"/>
<polygon fill="black" stroke="black" points="612.58,-261.85 616.74,-252.1 607.41,-257.12 612.58,-261.85"/>
</g>
<!-- [root] aws_route_table_association.public_association (expand)&#45;&gt;[root] aws_subnet.public&#45;subnet (expand) -->
<g id="edge18" class="edge">
<title>[root] aws_route_table_association.public_association (expand)&#45;&gt;[root] aws_subnet.public&#45;subnet (expand)</title>
<path fill="none" stroke="black" d="M523.87,-287.82C507.12,-279.34 489.27,-267.53 477.38,-252 463.74,-234.18 457.84,-209.17 455.3,-190.2"/>
<polygon fill="black" stroke="black" points="458.76,-189.65 454.18,-180.1 451.8,-190.42 458.76,-189.65"/>
</g>
<!-- [root] aws_security_group.sg&#45;01 (expand)&#45;&gt;[root] aws_vpc.vpc&#45;1 (expand) -->
<g id="edge19" class="edge">
<title>[root] aws_security_group.sg&#45;01 (expand)&#45;&gt;[root] aws_vpc.vpc&#45;1 (expand)</title>
<path fill="none" stroke="black" d="M1165.44,-215.65C1145.25,-194.89 1108.37,-160.83 1069.38,-144 972.29,-102.09 848.68,-92.15 772.57,-90.4"/>
<polygon fill="black" stroke="black" points="772.22,-86.89 762.15,-90.2 772.09,-93.89 772.22,-86.89"/>
</g>
<!-- [root] var.port -->
<g id="node18" class="node">
<title>[root] var.port</title>
<polygon fill="none" stroke="black" points="1211.88,-180 1144.88,-180 1144.88,-144 1217.88,-144 1217.88,-174 1211.88,-180"/>
<polyline fill="none" stroke="black" points="1211.88,-180 1211.88,-174 "/>
<polyline fill="none" stroke="black" points="1217.88,-174 1211.88,-174 "/>
<text text-anchor="middle" x="1181.38" y="-158.3" font-family="Times,serif" font-size="14.00">var.port</text>
</g>
<!-- [root] aws_security_group.sg&#45;01 (expand)&#45;&gt;[root] var.port -->
<g id="edge20" class="edge">
<title>[root] aws_security_group.sg&#45;01 (expand)&#45;&gt;[root] var.port</title>
<path fill="none" stroke="black" d="M1181.38,-215.7C1181.38,-207.98 1181.38,-198.71 1181.38,-190.11"/>
<polygon fill="black" stroke="black" points="1184.88,-190.1 1181.38,-180.1 1177.88,-190.1 1184.88,-190.1"/>
</g>
<!-- [root] aws_subnet.private&#45;subnet (expand)&#45;&gt;[root] aws_vpc.vpc&#45;1 (expand) -->
<g id="edge21" class="edge">
<title>[root] aws_subnet.private&#45;subnet (expand)&#45;&gt;[root] aws_vpc.vpc&#45;1 (expand)</title>
<path fill="none" stroke="black" d="M893.81,-143.97C857.02,-133.79 810.18,-120.83 772.04,-110.27"/>
<polygon fill="black" stroke="black" points="772.61,-106.8 762.04,-107.51 770.74,-113.55 772.61,-106.8"/>
</g>
<!-- [root] var.subnet -->
<g id="node19" class="node">
<title>[root] var.subnet</title>
<polygon fill="none" stroke="black" points="555.38,-108 469.38,-108 469.38,-72 561.38,-72 561.38,-102 555.38,-108"/>
<polyline fill="none" stroke="black" points="555.38,-108 555.38,-102 "/>
<polyline fill="none" stroke="black" points="561.38,-102 555.38,-102 "/>
<text text-anchor="middle" x="515.38" y="-86.3" font-family="Times,serif" font-size="14.00">var.subnet</text>
</g>
<!-- [root] aws_subnet.private&#45;subnet (expand)&#45;&gt;[root] var.subnet -->
<g id="edge22" class="edge">
<title>[root] aws_subnet.private&#45;subnet (expand)&#45;&gt;[root] var.subnet</title>
<path fill="none" stroke="black" d="M850.83,-144.37C763.26,-130.43 641.64,-111.09 571.45,-99.92"/>
<polygon fill="black" stroke="black" points="571.9,-96.45 561.48,-98.33 570.8,-103.36 571.9,-96.45"/>
</g>
<!-- [root] aws_subnet.public&#45;subnet (expand)&#45;&gt;[root] aws_vpc.vpc&#45;1 (expand) -->
<g id="edge23" class="edge">
<title>[root] aws_subnet.public&#45;subnet (expand)&#45;&gt;[root] aws_vpc.vpc&#45;1 (expand)</title>
<path fill="none" stroke="black" d="M513.98,-143.97C549.92,-133.86 595.61,-121.02 633,-110.51"/>
<polygon fill="black" stroke="black" points="634.13,-113.82 642.81,-107.75 632.24,-107.08 634.13,-113.82"/>
</g>
<!-- [root] aws_subnet.public&#45;subnet (expand)&#45;&gt;[root] var.subnet -->
<g id="edge24" class="edge">
<title>[root] aws_subnet.public&#45;subnet (expand)&#45;&gt;[root] var.subnet</title>
<path fill="none" stroke="black" d="M468.71,-143.7C476.14,-135.3 485.2,-125.07 493.36,-115.86"/>
<polygon fill="black" stroke="black" points="496.22,-117.91 500.23,-108.1 490.98,-113.27 496.22,-117.91"/>
</g>
<!-- [root] aws_vpc.vpc&#45;1 (expand)&#45;&gt;[root] provider[&quot;registry.terraform.io/hashicorp/aws&quot;] -->
<g id="edge25" class="edge">
<title>[root] aws_vpc.vpc&#45;1 (expand)&#45;&gt;[root] provider[&quot;registry.terraform.io/hashicorp/aws&quot;]</title>
<path fill="none" stroke="black" d="M642.64,-77.91C578.82,-66.06 477.28,-47.2 406.32,-34.03"/>
<polygon fill="black" stroke="black" points="406.55,-30.51 396.08,-32.13 405.27,-37.39 406.55,-30.51"/>
</g>
<!-- [root] var.vpc -->
<g id="node21" class="node">
<title>[root] var.vpc</title>
<polygon fill="none" stroke="black" points="730.38,-36 668.38,-36 668.38,0 736.38,0 736.38,-30 730.38,-36"/>
<polyline fill="none" stroke="black" points="730.38,-36 730.38,-30 "/>
<polyline fill="none" stroke="black" points="736.38,-30 730.38,-30 "/>
<text text-anchor="middle" x="702.38" y="-14.3" font-family="Times,serif" font-size="14.00">var.vpc</text>
</g>
<!-- [root] aws_vpc.vpc&#45;1 (expand)&#45;&gt;[root] var.vpc -->
<g id="edge26" class="edge">
<title>[root] aws_vpc.vpc&#45;1 (expand)&#45;&gt;[root] var.vpc</title>
<path fill="none" stroke="black" d="M702.38,-71.7C702.38,-63.98 702.38,-54.71 702.38,-46.11"/>
<polygon fill="black" stroke="black" points="705.88,-46.1 702.38,-36.1 698.88,-46.1 705.88,-46.1"/>
</g>
<!-- [root] local_file.ips (expand) -->
<g id="node14" class="node">
<title>[root] local_file.ips (expand)</title>
<polygon fill="none" stroke="black" points="1402.38,-396 1298.38,-396 1298.38,-360 1402.38,-360 1402.38,-396"/>
<text text-anchor="middle" x="1350.38" y="-374.3" font-family="Times,serif" font-size="14.00">local_file.ips</text>
</g>
<!-- [root] local_file.ips (expand)&#45;&gt;[root] aws_instance.public_ec2 (expand) -->
<g id="edge27" class="edge">
<title>[root] local_file.ips (expand)&#45;&gt;[root] aws_instance.public_ec2 (expand)</title>
<path fill="none" stroke="black" d="M1298.26,-361.93C1295.27,-361.23 1292.29,-360.58 1289.38,-360 1166.12,-335.26 1130.84,-342.03 1003.29,-324.23"/>
<polygon fill="black" stroke="black" points="1003.52,-320.73 993.13,-322.79 1002.54,-327.66 1003.52,-320.73"/>
</g>
<!-- [root] provider[&quot;registry.terraform.io/hashicorp/local&quot;] -->
<g id="node16" class="node">
<title>[root] provider[&quot;registry.terraform.io/hashicorp/local&quot;]</title>
<polygon fill="none" stroke="black" points="1340.38,-324 1010.43,-306 1340.38,-288 1670.34,-306 1340.38,-324"/>
<text text-anchor="middle" x="1340.38" y="-302.3" font-family="Times,serif" font-size="14.00">provider[&quot;registry.terraform.io/hashicorp/local&quot;]</text>
</g>
<!-- [root] local_file.ips (expand)&#45;&gt;[root] provider[&quot;registry.terraform.io/hashicorp/local&quot;] -->
<g id="edge28" class="edge">
<title>[root] local_file.ips (expand)&#45;&gt;[root] provider[&quot;registry.terraform.io/hashicorp/local&quot;]</title>
<path fill="none" stroke="black" d="M1347.91,-359.7C1346.81,-351.98 1345.48,-342.71 1344.25,-334.11"/>
<polygon fill="black" stroke="black" points="1347.7,-333.51 1342.83,-324.1 1340.77,-334.5 1347.7,-333.51"/>
</g>
<!-- [root] output.private_ip_ec2 (expand) -->
<g id="node22" class="node">
<title>[root] output.private_ip_ec2 (expand)</title>
<ellipse fill="none" stroke="black" cx="1097.38" cy="-378" rx="183.07" ry="18"/>
<text text-anchor="middle" x="1097.38" y="-374.3" font-family="Times,serif" font-size="14.00">[root] output.private_ip_ec2 (expand)</text>
</g>
<!-- [root] output.private_ip_ec2 (expand)&#45;&gt;[root] aws_instance.public_ec2 (expand) -->
<g id="edge29" class="edge">
<title>[root] output.private_ip_ec2 (expand)&#45;&gt;[root] aws_instance.public_ec2 (expand)</title>
<path fill="none" stroke="black" d="M1050.49,-360.59C1022.15,-350.67 985.8,-337.95 955.63,-327.39"/>
<polygon fill="black" stroke="black" points="956.66,-324.04 946.07,-324.04 954.35,-330.65 956.66,-324.04"/>
</g>
<!-- [root] output.private_ip_ec2_1 (expand) -->
<g id="node23" class="node">
<title>[root] output.private_ip_ec2_1 (expand)</title>
<ellipse fill="none" stroke="black" cx="1928.38" cy="-450" rx="193.87" ry="18"/>
<text text-anchor="middle" x="1928.38" y="-446.3" font-family="Times,serif" font-size="14.00">[root] output.private_ip_ec2_1 (expand)</text>
</g>
<!-- [root] output.private_ip_ec2_1 (expand)&#45;&gt;[root] aws_instance.private_ec2 (expand) -->
<g id="edge30" class="edge">
<title>[root] output.private_ip_ec2_1 (expand)&#45;&gt;[root] aws_instance.private_ec2 (expand)</title>
<path fill="none" stroke="black" d="M1911.37,-431.87C1886.5,-406.82 1840.06,-360.05 1811.62,-331.41"/>
<polygon fill="black" stroke="black" points="1813.98,-328.82 1804.45,-324.19 1809.01,-333.75 1813.98,-328.82"/>
</g>
<!-- [root] output.public_ip_ec2 (expand) -->
<g id="node24" class="node">
<title>[root] output.public_ip_ec2 (expand)</title>
<ellipse fill="none" stroke="black" cx="890.38" cy="-450" rx="178.97" ry="18"/>
<text text-anchor="middle" x="890.38" y="-446.3" font-family="Times,serif" font-size="14.00">[root] output.public_ip_ec2 (expand)</text>
</g>
<!-- [root] output.public_ip_ec2 (expand)&#45;&gt;[root] aws_instance.public_ec2 (expand) -->
<g id="edge31" class="edge">
<title>[root] output.public_ip_ec2 (expand)&#45;&gt;[root] aws_instance.public_ec2 (expand)</title>
<path fill="none" stroke="black" d="M891.23,-431.87C892.42,-407.67 894.61,-363.21 896.03,-334.39"/>
<polygon fill="black" stroke="black" points="899.54,-334.35 896.53,-324.19 892.55,-334 899.54,-334.35"/>
</g>
<!-- [root] provider[&quot;registry.terraform.io/hashicorp/aws&quot;] (close) -->
<g id="node25" class="node">
<title>[root] provider[&quot;registry.terraform.io/hashicorp/aws&quot;] (close)</title>
<ellipse fill="none" stroke="black" cx="401.38" cy="-450" rx="291.65" ry="18"/>
<text text-anchor="middle" x="401.38" y="-446.3" font-family="Times,serif" font-size="14.00">[root] provider[&quot;registry.terraform.io/hashicorp/aws&quot;] (close)</text>
</g>
<!-- [root] provider[&quot;registry.terraform.io/hashicorp/aws&quot;] (close)&#45;&gt;[root] aws_instance.private_ec2 (expand) -->
<g id="edge32" class="edge">
<title>[root] provider[&quot;registry.terraform.io/hashicorp/aws&quot;] (close)&#45;&gt;[root] aws_instance.private_ec2 (expand)</title>
<path fill="none" stroke="black" d="M607.41,-437.21C639.21,-435.43 671.68,-433.65 702.38,-432 1017.45,-415.1 1099.02,-440.52 1411.38,-396 1521.02,-380.37 1645.61,-347.89 1720.28,-326.79"/>
<polygon fill="black" stroke="black" points="1721.37,-330.12 1730.03,-324.02 1719.46,-323.38 1721.37,-330.12"/>
</g>
<!-- [root] provider[&quot;registry.terraform.io/hashicorp/aws&quot;] (close)&#45;&gt;[root] aws_instance.public_ec2 (expand) -->
<g id="edge33" class="edge">
<title>[root] provider[&quot;registry.terraform.io/hashicorp/aws&quot;] (close)&#45;&gt;[root] aws_instance.public_ec2 (expand)</title>
<path fill="none" stroke="black" d="M578.23,-435.64C665.06,-427.04 759.28,-414.05 798.38,-396 830.24,-381.29 859.14,-352.72 877.38,-331.91"/>
<polygon fill="black" stroke="black" points="880.23,-333.96 884.06,-324.08 874.9,-329.41 880.23,-333.96"/>
</g>
<!-- [root] provider[&quot;registry.terraform.io/hashicorp/aws&quot;] (close)&#45;&gt;[root] aws_route_table_association.private_association (expand) -->
<g id="edge34" class="edge">
<title>[root] provider[&quot;registry.terraform.io/hashicorp/aws&quot;] (close)&#45;&gt;[root] aws_route_table_association.private_association (expand)</title>
<path fill="none" stroke="black" d="M451.2,-432.23C480.48,-422.38 517.71,-409.85 548.7,-399.42"/>
<polygon fill="black" stroke="black" points="550.16,-402.62 558.52,-396.12 547.93,-395.99 550.16,-402.62"/>
</g>
<!-- [root] provider[&quot;registry.terraform.io/hashicorp/aws&quot;] (close)&#45;&gt;[root] aws_route_table_association.public_association (expand) -->
<g id="edge35" class="edge">
<title>[root] provider[&quot;registry.terraform.io/hashicorp/aws&quot;] (close)&#45;&gt;[root] aws_route_table_association.public_association (expand)</title>
<path fill="none" stroke="black" d="M400.38,-431.76C400.19,-412.07 402.91,-379.98 420.38,-360 432.66,-345.96 448.93,-335.64 466.19,-328.05"/>
<polygon fill="black" stroke="black" points="467.92,-331.13 475.86,-324.11 465.28,-324.64 467.92,-331.13"/>
</g>
<!-- [root] provider[&quot;registry.terraform.io/hashicorp/local&quot;] (close) -->
<g id="node26" class="node">
<title>[root] provider[&quot;registry.terraform.io/hashicorp/local&quot;] (close)</title>
<ellipse fill="none" stroke="black" cx="1421.38" cy="-450" rx="295.95" ry="18"/>
<text text-anchor="middle" x="1421.38" y="-446.3" font-family="Times,serif" font-size="14.00">[root] provider[&quot;registry.terraform.io/hashicorp/local&quot;] (close)</text>
</g>
<!-- [root] provider[&quot;registry.terraform.io/hashicorp/local&quot;] (close)&#45;&gt;[root] local_file.ips (expand) -->
<g id="edge36" class="edge">
<title>[root] provider[&quot;registry.terraform.io/hashicorp/local&quot;] (close)&#45;&gt;[root] local_file.ips (expand)</title>
<path fill="none" stroke="black" d="M1403.83,-431.7C1395.15,-423.14 1384.52,-412.66 1375.03,-403.3"/>
<polygon fill="black" stroke="black" points="1377.31,-400.63 1367.73,-396.1 1372.39,-405.62 1377.31,-400.63"/>
</g>
<!-- [root] root -->
<g id="node27" class="node">
<title>[root] root</title>
<ellipse fill="none" stroke="black" cx="1097.38" cy="-522" rx="58.49" ry="18"/>
<text text-anchor="middle" x="1097.38" y="-518.3" font-family="Times,serif" font-size="14.00">[root] root</text>
</g>
<!-- [root] root&#45;&gt;[root] output.private_ip_ec2 (expand) -->
<g id="edge37" class="edge">
<title>[root] root&#45;&gt;[root] output.private_ip_ec2 (expand)</title>
<path fill="none" stroke="black" d="M1097.38,-503.87C1097.38,-479.67 1097.38,-435.21 1097.38,-406.39"/>
<polygon fill="black" stroke="black" points="1100.88,-406.19 1097.38,-396.19 1093.88,-406.19 1100.88,-406.19"/>
</g>
<!-- [root] root&#45;&gt;[root] output.private_ip_ec2_1 (expand) -->
<g id="edge38" class="edge">
<title>[root] root&#45;&gt;[root] output.private_ip_ec2_1 (expand)</title>
<path fill="none" stroke="black" d="M1153.2,-516.3C1279.87,-505.63 1592.61,-479.28 1779.86,-463.51"/>
<polygon fill="black" stroke="black" points="1780.4,-466.98 1790.07,-462.65 1779.81,-460 1780.4,-466.98"/>
</g>
<!-- [root] root&#45;&gt;[root] output.public_ip_ec2 (expand) -->
<g id="edge39" class="edge">
<title>[root] root&#45;&gt;[root] output.public_ip_ec2 (expand)</title>
<path fill="none" stroke="black" d="M1059.41,-508.16C1028.37,-497.66 983.96,-482.64 948.45,-470.64"/>
<polygon fill="black" stroke="black" points="949.28,-467.22 938.69,-467.34 947.04,-473.86 949.28,-467.22"/>
</g>
<!-- [root] root&#45;&gt;[root] provider[&quot;registry.terraform.io/hashicorp/aws&quot;] (close) -->
<g id="edge40" class="edge">
<title>[root] root&#45;&gt;[root] provider[&quot;registry.terraform.io/hashicorp/aws&quot;] (close)</title>
<path fill="none" stroke="black" d="M1042.77,-515.51C939.29,-505.1 711.22,-482.16 556.87,-466.64"/>
<polygon fill="black" stroke="black" points="557.11,-463.14 546.81,-465.63 556.41,-470.11 557.11,-463.14"/>
</g>
<!-- [root] root&#45;&gt;[root] provider[&quot;registry.terraform.io/hashicorp/local&quot;] (close) -->
<g id="edge41" class="edge">
<title>[root] root&#45;&gt;[root] provider[&quot;registry.terraform.io/hashicorp/local&quot;] (close)</title>
<path fill="none" stroke="black" d="M1143.8,-510.97C1193.61,-500.21 1273.83,-482.88 1335.26,-469.61"/>
<polygon fill="black" stroke="black" points="1336.3,-472.96 1345.33,-467.43 1334.82,-466.12 1336.3,-472.96"/>
</g>
</g>
</svg>
